<?xml version="1.0" standalone="no"?>
<!DOCTYPE svg PUBLIC "-//W3C//DTD SVG 20010904//EN"
 "http://www.w3.org/TR/2001/REC-SVG-20010904/DTD/svg10.dtd">
<svg version="1.0" xmlns="http://www.w3.org/2000/svg"
 width="558.000000pt" height="558.000000pt" viewBox="0 0 558.000000 558.000000"
 preserveAspectRatio="xMidYMid meet">
<metadata>
Created by potrace 1.11, written by Peter Selinger 2001-2013
</metadata>
<g transform="translate(0.000000,558.000000) scale(0.100000,-0.100000)"
fill="#000000" stroke="none">
<path d="M2785 4774 c-337 -21 -610 -93 -820 -218 -377 -225 -646 -669 -730
-1205 -18 -110 -11 -177 22 -213 13 -15 2 -36 -121 -226 -193 -298 -221 -361
-196 -436 13 -42 65 -81 164 -126 l65 -29 -14 -35 c-22 -51 -19 -124 6 -165
19 -32 19 -36 4 -73 -14 -36 -14 -42 1 -75 10 -19 34 -46 56 -60 21 -14 38
-32 38 -39 0 -8 -11 -53 -25 -100 -58 -202 -9 -341 145 -413 77 -36 207 -40
405 -12 196 28 200 27 213 -6 12 -31 32 -217 32 -300 l0 -53 965 0 c531 0 965
2 965 4 0 2 -7 23 -15 47 -55 155 -100 392 -110 574 -8 146 12 316 48 405 39
95 116 223 200 332 180 232 244 341 306 524 58 171 75 278 75 469 0 185 -17
297 -69 452 -174 521 -608 867 -1200 957 -106 16 -311 26 -410 20z m-601 -280
c-82 -50 -117 -77 -213 -169 -82 -79 -188 -211 -249 -312 -95 -157 -172 -368
-218 -590 -30 -150 -29 -214 6 -261 20 -27 23 -37 14 -60 -10 -25 -103 -169
-249 -382 -68 -101 -119 -204 -111 -226 5 -12 1 -14 -17 -8 -35 10 -77 34 -77
42 0 13 100 177 223 366 105 160 117 183 117 223 0 29 -9 59 -25 87 l-25 43
20 113 c64 355 183 611 397 855 89 103 209 194 345 262 120 61 147 68 62 17z
m1466 -275 c62 -13 115 -57 141 -114 17 -38 19 -86 19 -793 0 -657 -2 -757
-15 -790 -20 -47 -50 -79 -97 -103 -36 -18 -70 -19 -813 -19 -628 0 -782 3
-808 13 -39 17 -104 87 -114 124 -5 16 -8 368 -8 783 l0 755 22 42 c26 48 73
87 123 101 51 15 1483 15 1550 1z"/>
<path d="M2095 4085 c-23 -23 -25 -31 -25 -130 l0 -105 810 0 810 0 0 109 c0
169 95 151 -812 151 l-759 0 -24 -25z m125 -100 c10 -12 10 -18 0 -30 -19 -23
-80 -17 -80 9 0 34 57 49 80 21z m200 0 c16 -20 -3 -45 -35 -45 -32 0 -51 25
-35 45 7 8 23 15 35 15 12 0 28 -7 35 -15z m199 1 c18 -21 2 -46 -29 -46 -36
0 -57 24 -40 45 16 19 54 19 69 1z"/>
<path d="M2070 3180 c0 -604 1 -621 20 -640 11 -11 30 -22 42 -25 13 -3 360
-4 771 -3 l749 3 19 24 c18 22 19 48 19 642 l0 619 -810 0 -810 0 0 -620z
m526 286 c8 -21 -25 -66 -47 -66 -27 0 -34 26 -15 55 18 27 53 33 62 11z m752
-152 c72 -90 132 -171 132 -179 0 -23 -269 -350 -288 -350 -42 0 -20 43 102
195 105 131 122 157 112 170 -105 124 -236 297 -236 311 0 13 7 19 23 19 16
-1 55 -42 155 -166z m-850 24 c2 -10 -26 -53 -64 -100 -37 -46 -71 -88 -76
-94 -4 -6 44 -74 118 -165 123 -152 142 -189 103 -197 -23 -4 -302 344 -292
363 5 8 44 59 88 115 59 74 85 100 100 98 11 -2 21 -11 23 -20z m555 -43 c4
-9 -46 -78 -130 -182 -74 -92 -140 -171 -146 -175 -16 -10 -37 2 -37 22 0 10
22 45 48 77 26 32 87 106 136 166 84 104 116 127 129 92z"/>
</g>
</svg>
