<?xml version="1.0" standalone="no"?>
<!DOCTYPE svg PUBLIC "-//W3C//DTD SVG 20010904//EN"
 "http://www.w3.org/TR/2001/REC-SVG-20010904/DTD/svg10.dtd">
<svg version="1.0" xmlns="http://www.w3.org/2000/svg"
 width="1024.000000pt" height="1024.000000pt" viewBox="0 0 1024.000000 1024.000000"
 preserveAspectRatio="xMidYMid meet">
<metadata>
Created by potrace 1.11, written by Peter Selinger 2001-2013
</metadata>
<g transform="translate(0.000000,1024.000000) scale(0.100000,-0.100000)"
fill="#000000" stroke="none">
<path d="M2260 5445 l0 -1875 188 0 c481 0 1010 -38 1349 -96 333 -57 560
-132 911 -304 l242 -119 0 1873 0 1874 -63 59 c-268 250 -711 375 -1542 433
-206 14 -671 30 -897 30 l-188 0 0 -1875z"/>
<path d="M7300 7309 c-1068 -36 -1633 -168 -1937 -452 l-63 -59 0 -1874 0
-1873 243 119 c133 65 300 140 372 165 416 149 913 216 1728 232 l347 6 0
1874 0 1873 -237 -2 c-131 0 -335 -4 -453 -9z"/>
<path d="M1480 4925 l0 -2005 1593 1 1592 1 -111 53 c-523 250 -1080 335
-2196 335 l-358 0 0 1810 0 1810 -260 0 -260 0 0 -2005z"/>
<path d="M8250 5120 l0 -1810 -357 0 c-1117 0 -1674 -85 -2197 -335 l-111 -53
1593 -1 1592 -1 0 2005 0 2005 -260 0 -260 0 0 -1810z"/>
</g>
</svg>
